<svg width="131" height="131" viewBox="0 0 131 131" fill="none" xmlns="http://www.w3.org/2000/svg">
<path d="M118.191 31.1513L94.568 17.9278L94.2836 17.7653C94.2836 17.7653 94.2836 17.7653 94.1415 17.7653L93.8165 17.6231L76.5508 12.6872C76.3421 12.6563 76.1299 12.6563 75.9212 12.6872H75.6368C75.3652 12.7495 75.1094 12.8671 74.8852 13.0325C72.2351 15.0881 68.9766 16.2038 65.6227 16.2038C62.2689 16.2038 59.0103 15.0881 56.3602 13.0325C56.0941 12.8478 55.7877 12.7294 55.4665 12.6872H55.1821C54.9733 12.6569 54.7612 12.6569 54.5524 12.6872H54.4508L37.2055 17.5622C37.0487 17.6019 36.8983 17.6635 36.7587 17.745L12.8102 31.1513C12.3441 31.4123 11.9996 31.8465 11.8513 32.3598C11.703 32.873 11.7629 33.424 12.018 33.8935L22.5602 53.0685C22.7563 53.4246 23.0546 53.7136 23.4168 53.8983C23.7789 54.083 24.1881 54.1548 24.5915 54.1044L34.3415 53.3122C32.7571 65.7028 31.9852 106.389 31.8836 111.406C31.8731 111.878 32.0276 112.34 32.3205 112.71C32.6134 113.081 33.0264 113.338 33.4883 113.437L55.5274 118.312C55.9872 118.412 56.4675 118.349 56.8861 118.134C57.3048 117.919 57.6358 117.566 57.8227 117.134L65.5008 99.4419L73.179 117.093C73.3375 117.457 73.599 117.766 73.931 117.982C74.2631 118.199 74.6513 118.314 75.0477 118.312H75.4743L97.5133 113.518C97.9753 113.419 98.3883 113.162 98.6812 112.792C98.9741 112.421 99.1285 111.96 99.118 111.487C99.118 106.47 98.2446 65.7841 96.6602 53.3935L106.512 54.145C106.915 54.1954 107.324 54.1236 107.686 53.939C108.049 53.7543 108.347 53.4652 108.543 53.1091L119.085 33.9341C119.214 33.6937 119.293 33.4298 119.318 33.1582C119.343 32.8865 119.313 32.6126 119.229 32.3529C119.146 32.0932 119.011 31.853 118.833 31.6465C118.654 31.4401 118.436 31.2716 118.191 31.1513ZM74.4586 18.07C74.7227 20.9747 74.6821 25.4435 72.4274 28.2263C71.5791 29.2132 70.5093 29.9853 69.3055 30.4796C68.1016 30.9738 66.7979 31.1761 65.5008 31.07C64.2088 31.1835 62.9082 30.9907 61.7047 30.5072C60.5012 30.0236 59.4287 29.2631 58.5743 28.2872C56.3196 25.4435 56.279 20.9747 56.543 18.131C59.308 19.5819 62.3858 20.3348 65.5084 20.3242C68.631 20.3135 71.7036 19.5397 74.4586 18.07ZM25.4852 49.9606L16.5477 33.7106L37.1852 22.1528C45.0055 33.6294 37.7743 46.0606 35.6821 49.1685L25.4852 49.9606ZM76.2665 113.945L67.3696 93.531C67.2135 93.1645 66.9531 92.8521 66.6209 92.6325C66.2886 92.4129 65.8991 92.2958 65.5008 92.2958C65.1026 92.2958 64.7131 92.4129 64.3808 92.6325C64.0485 92.8521 63.7882 93.1645 63.6321 93.531L54.7555 113.945L35.9868 109.883C36.2915 94.2013 37.2665 58.045 38.6883 52.0122C40.8879 48.7606 42.5606 45.1822 43.6446 41.4091C44.7406 37.9778 45.083 34.3503 44.6483 30.7746C44.2136 27.1988 43.0121 23.7591 41.1258 20.6903L52.5618 17.5216C52.2165 21.0763 52.2571 26.8044 55.4258 30.7856C56.4041 32.0067 57.6229 33.0137 59.0067 33.744C60.3904 34.4743 61.9095 34.9123 63.4696 35.031V54.2872H58.879C58.3402 54.2872 57.8236 54.5012 57.4427 54.8821C57.0617 55.2631 56.8477 55.7797 56.8477 56.3185C56.8477 56.8572 57.0617 57.3738 57.4427 57.7548C57.8236 58.1357 58.3402 58.3497 58.879 58.3497H65.5008C66.0396 58.3497 66.5562 58.1357 66.9371 57.7548C67.3181 57.3738 67.5321 56.8572 67.5321 56.3185V35.031C69.1047 34.9258 70.6385 34.4961 72.0368 33.7689C73.4352 33.0418 74.6678 32.0329 75.6571 30.806C78.8258 26.7435 78.8665 21.0966 78.5211 17.5419L89.9774 20.8122C88.0866 23.8712 86.879 27.3025 86.4373 30.8715C85.9955 34.4404 86.3301 38.0627 87.418 41.4903C88.4731 45.2156 90.119 48.7475 92.293 51.9513C93.7352 57.5981 94.7102 94.1606 95.0149 109.964L76.2665 113.945ZM105.516 49.9606L95.3602 49.1888C93.329 46.081 86.1383 33.5481 93.8368 22.1731L114.454 33.7106L105.516 49.9606Z" fill="black"/>
<path d="M71.98 38.8701C71.6296 38.8701 71.2871 38.9743 70.9961 39.1694C70.7051 39.3645 70.4786 39.6417 70.3454 39.9658C70.2123 40.2899 70.1785 40.6463 70.2484 40.9896C70.3182 41.333 70.4886 41.6478 70.7377 41.8941C70.9869 42.1404 71.3037 42.3071 71.6478 42.373C71.992 42.4389 72.3479 42.4009 72.6704 42.2641C72.993 42.1272 73.2675 41.8975 73.4593 41.6043C73.651 41.311 73.7512 40.9673 73.7472 40.617C73.7418 40.1518 73.5533 39.7075 73.2224 39.3805C72.8916 39.0535 72.4451 38.8701 71.98 38.8701Z" fill="black"/>
<path d="M71.98 48.1525C71.6296 48.1525 71.2871 48.2567 70.9961 48.4518C70.7051 48.6469 70.4786 48.9241 70.3454 49.2482C70.2123 49.5722 70.1785 49.9286 70.2484 50.272C70.3182 50.6153 70.4886 50.9301 70.7377 51.1764C70.9869 51.4228 71.3037 51.5894 71.6478 51.6553C71.992 51.7212 72.3479 51.6833 72.6704 51.5464C72.993 51.4095 73.2675 51.1799 73.4593 50.8866C73.651 50.5933 73.7512 50.2497 73.7472 49.8993C73.7472 49.6682 73.7013 49.4394 73.6123 49.2261C73.5232 49.0128 73.3927 48.8194 73.2283 48.6569C73.064 48.4944 72.869 48.3661 72.6547 48.2796C72.4404 48.193 72.2111 48.1498 71.98 48.1525Z" fill="black"/>
</svg>
