<svg width="110" height="109" viewBox="0 0 110 109" fill="none" xmlns="http://www.w3.org/2000/svg">
<path d="M55 107.297C84.1234 107.297 107.797 83.6234 107.797 54.5C107.797 25.3766 84.1234 1.70312 55 1.70312C25.8766 1.70312 2.20312 25.3766 2.20312 54.5C2.20312 83.6234 25.8766 107.297 55 107.297ZM14.125 75.5336L35.5844 75.3633C37.9688 83.9641 41.9711 92.3094 47.4211 99.8031C32.8594 97.4187 20.682 88.1367 14.125 75.5336ZM41.0344 40.0234H67.7734C69.732 49.3906 69.732 59.0133 67.9437 68.3805L41.0344 68.5508C39.0758 59.0984 39.0758 49.3906 41.0344 40.0234ZM54.4039 97.8445C49.0391 90.9469 45.1219 83.368 42.7375 75.3633L66.1555 75.193C63.6859 83.1977 59.7687 90.8617 54.4039 97.8445ZM61.2164 100.059C66.8367 92.3945 70.8391 83.9641 73.2234 75.1078L96.1305 74.9375C89.4883 88.307 76.5445 97.9297 61.2164 100.059ZM100.984 54.5C100.984 59.2687 100.218 63.8672 98.9406 68.125L74.8414 68.2953C76.5445 58.9281 76.4594 49.3906 74.6711 40.0234H98.6C100.133 44.5367 100.984 49.4758 100.984 54.5ZM95.7047 33.2109H73.0531C70.5836 24.6953 66.6664 16.4352 61.2164 8.94141C76.2891 10.9852 88.9773 20.2672 95.7047 33.2109ZM65.9852 33.2109H42.8227C45.2922 25.3766 49.1242 17.968 54.4039 11.1555C59.6836 17.968 63.5156 25.3766 65.9852 33.2109ZM47.4211 9.19688C42.0562 16.6055 38.1391 24.6953 35.7547 33.2109H14.2953C20.8523 20.693 32.9445 11.5813 47.4211 9.19688ZM34.1367 40.0234C32.3484 49.4758 32.3484 59.0984 34.0516 68.5508L11.3148 68.7211C9.78203 64.2078 9.01562 59.4391 9.01562 54.5C9.01562 49.4758 9.86719 44.5367 11.4 40.0234H34.1367Z" fill="black"/>
</svg>
