<svg width="178" height="173" viewBox="0 0 178 173" fill="none" xmlns="http://www.w3.org/2000/svg">
<path d="M77.1362 65.3083C77.854 65.7971 78.7275 66.0177 79.5977 65.93C80.1825 65.8785 80.7396 65.6625 81.2017 65.3083C81.6789 64.9165 82.0335 64.4012 82.225 63.8216L83.4695 59.7939L95.9702 58.4424L98.2656 62.1727C98.5743 62.6956 99.0239 63.1258 99.5655 63.4161C100.092 63.6564 100.675 63.7499 101.252 63.6864C102.117 63.5898 102.914 63.1857 103.493 62.5511C103.784 62.2621 104.004 61.9128 104.138 61.5291C104.272 61.1454 104.316 60.7371 104.267 60.3346C104.206 59.8536 104.036 59.3919 103.769 58.983L91.2409 39.6016C90.8308 38.9824 90.2444 38.4938 89.5539 38.196C88.8425 37.9223 88.0741 37.8204 87.3137 37.8986C86.5464 37.9752 85.8126 38.2454 85.1842 38.6825C84.5729 39.1086 84.1173 39.7149 83.8844 40.4125L76.03 62.0375C75.8491 62.4931 75.7828 62.9844 75.8364 63.4702C75.9065 63.8494 76.0587 64.2096 76.2829 64.5267C76.5071 64.8437 76.798 65.1102 77.1362 65.3083ZM88.1987 45.4944L93.0109 53.6038L85.2948 54.4417L88.1987 45.4944Z" fill="black"/>
<path d="M61.1509 122.479C62.4119 122.05 63.5043 121.247 64.2761 120.182C65.2119 118.826 65.5867 117.173 65.3249 115.558C65.0632 113.943 64.1843 112.484 62.8656 111.478C60.8555 110.125 58.4441 109.459 56.0068 109.585H46.0506C45.1497 109.54 44.2664 109.841 43.5892 110.423C42.9979 111.086 42.6996 111.952 42.7595 112.829V133.157C42.6996 134.034 42.9979 134.899 43.5892 135.562C44.2664 136.145 45.1497 136.446 46.0506 136.4H56.394C58.154 136.429 59.9023 136.117 61.5381 135.481C62.895 134.952 64.0733 134.063 64.9398 132.913C65.7266 131.773 66.1325 130.423 66.1014 129.048C66.1556 127.562 65.7086 126.099 64.8292 124.885C63.8976 123.72 62.6085 122.876 61.1509 122.479ZM49.7012 114.884H54.79C55.8207 114.804 56.8519 115.03 57.7492 115.532C58.073 115.767 58.3296 116.079 58.4943 116.439C58.659 116.799 58.7262 117.194 58.6895 117.587C58.7181 117.959 58.6463 118.332 58.4814 118.669C58.3164 119.006 58.0639 119.294 57.7492 119.506C56.8411 119.978 55.8163 120.193 54.79 120.128H49.7012V114.884ZM58.5789 130.454C57.6533 130.961 56.5942 131.186 55.5367 131.102H49.7289V125.399H55.5367C56.5981 125.307 57.6622 125.543 58.5789 126.074C58.903 126.338 59.1558 126.676 59.315 127.058C59.4741 127.44 59.5348 127.854 59.4915 128.264C59.5191 128.673 59.4512 129.082 59.2931 129.461C59.135 129.841 58.8908 130.18 58.5789 130.454Z" fill="black"/>
<path d="M147.078 86.5004H114.527L117.873 86.1219C119.683 85.9322 121.436 85.3894 123.027 84.5258C124.618 83.6622 126.016 82.4953 127.138 81.0941C128.276 79.7077 129.124 78.1154 129.631 76.4085C130.139 74.7015 130.297 72.9135 130.097 71.1466L124.953 25.5449C124.764 23.7658 124.216 22.0411 123.339 20.4708C122.463 18.9004 121.277 17.5156 119.849 16.3968C118.421 15.2779 116.781 14.4471 115.022 13.9526C113.263 13.4581 111.422 13.3097 109.604 13.516L60.1269 18.9223C58.3212 19.1053 56.5713 19.6397 54.9801 20.4939C53.389 21.3481 51.9888 22.5048 50.862 23.896C49.7237 25.2824 48.8764 26.8747 48.3686 28.5816C47.8608 30.2886 47.7025 32.0767 47.9028 33.8435L53.0469 79.5804C53.3616 82.1194 54.4069 84.5189 56.0614 86.5004H30.9219C27.2544 86.5004 23.7372 87.9243 21.1439 90.459C18.5506 92.9937 17.0938 96.4314 17.0938 100.016V145.969C17.0938 149.554 18.5506 152.991 21.1439 155.526C23.7372 158.061 27.2544 159.485 30.9219 159.485H77.9375C80.0842 159.485 82.2015 158.996 84.1216 158.058C86.0417 157.12 87.712 155.757 89 154.079C90.288 155.757 91.9583 157.12 93.8784 158.058C95.7985 158.996 97.9157 159.485 100.062 159.485H147.078C150.746 159.485 154.263 158.061 156.856 155.526C159.449 152.991 160.906 149.554 160.906 145.969V100.016C160.906 96.4314 159.449 92.9937 156.856 90.459C154.263 87.9243 150.746 86.5004 147.078 86.5004ZM89 91.9066C88.3043 90.9925 87.4857 90.1742 86.5663 89.4738L92.0975 88.8521C90.9091 89.707 89.864 90.7375 89 91.9066ZM55.1764 27.356C56.5424 25.6811 58.5308 24.6025 60.7077 24.3555L110.212 18.9223H111.125C113.176 18.9101 115.159 19.641 116.691 20.9738C118.224 22.3066 119.196 24.147 119.422 26.1396L124.649 71.7954C124.772 72.8552 124.68 73.9284 124.378 74.9534C124.076 75.9784 123.57 76.9351 122.889 77.7687C122.209 78.6024 121.366 79.2966 120.411 79.8115C119.455 80.3265 118.405 80.6521 117.32 80.7698L67.843 86.176C66.7501 86.3076 65.6414 86.2253 64.5814 85.9338C63.5214 85.6423 62.5314 85.1475 61.6691 84.4783C60.8067 83.8091 60.0893 82.9787 59.5587 82.0357C59.028 81.0927 58.6947 80.0559 58.5781 78.9857L53.4064 33.3299C53.2847 32.2693 53.3784 31.1957 53.6822 30.1705C53.9859 29.1454 54.4937 28.1889 55.1764 27.356ZM77.9375 154.079H30.9219C28.7214 154.079 26.6111 153.224 25.0551 151.703C23.4991 150.183 22.625 148.12 22.625 145.969V100.016C22.625 97.8653 23.4991 95.8026 25.0551 94.2818C26.6111 92.761 28.7214 91.9066 30.9219 91.9066H77.9375C80.138 91.9066 82.2483 92.761 83.8043 94.2818C85.3602 95.8026 86.2344 97.8653 86.2344 100.016V145.969C86.2344 148.12 85.3602 150.183 83.8043 151.703C82.2483 153.224 80.138 154.079 77.9375 154.079ZM155.375 145.969C155.375 148.12 154.501 150.183 152.945 151.703C151.389 153.224 149.279 154.079 147.078 154.079H100.062C97.862 154.079 95.7517 153.224 94.1957 151.703C92.6398 150.183 91.7656 148.12 91.7656 145.969V100.016C91.7656 97.8653 92.6398 95.8026 94.1957 94.2818C95.7517 92.761 97.862 91.9066 100.062 91.9066H147.078C149.279 91.9066 151.389 92.761 152.945 94.2818C154.501 95.8026 155.375 97.8653 155.375 100.016V145.969Z" fill="black"/>
<path d="M125.838 114.775C126.678 114.773 127.516 114.882 128.327 115.099C129.224 115.384 130.087 115.765 130.899 116.234C131.235 116.464 131.597 116.654 131.977 116.802C132.316 116.913 132.671 116.968 133.028 116.964C133.351 116.966 133.669 116.894 133.957 116.753C134.246 116.612 134.496 116.407 134.688 116.153C135.148 115.585 135.392 114.878 135.379 114.153C135.392 113.685 135.288 113.221 135.075 112.801C134.854 112.395 134.53 112.051 134.134 111.801C131.584 110.085 128.546 109.197 125.45 109.26C122.936 109.199 120.449 109.776 118.232 110.936C116.19 112.036 114.526 113.7 113.448 115.721C112.338 117.991 111.762 120.476 111.762 122.992C111.762 125.509 112.338 127.993 113.448 130.264C114.508 132.324 116.174 134.028 118.232 135.156C120.449 136.316 122.936 136.894 125.45 136.832C128.546 136.896 131.584 136.007 134.134 134.291C134.525 134.036 134.848 133.693 135.075 133.291C135.285 132.871 135.389 132.407 135.379 131.94C135.392 131.215 135.148 130.508 134.688 129.939C134.496 129.686 134.246 129.48 133.957 129.339C133.669 129.199 133.351 129.126 133.028 129.128C132.718 129.123 132.41 129.169 132.116 129.263L130.899 129.858C129.765 130.345 128.825 130.723 128.133 130.966C127.402 131.206 126.636 131.325 125.865 131.318C124.906 131.39 123.943 131.244 123.051 130.892C122.158 130.541 121.361 129.993 120.721 129.291C119.452 127.466 118.857 125.273 119.034 123.073C118.861 120.891 119.456 118.716 120.721 116.91C121.347 116.192 122.135 115.626 123.023 115.255C123.911 114.885 124.874 114.72 125.838 114.775Z" fill="black"/>
</svg>
