<svg width="39" height="40" viewBox="0 0 39 40" fill="none" xmlns="http://www.w3.org/2000/svg">
<path d="M32.9101 33.2578L25.6432 26.027M28.7886 17.9407C28.7886 20.155 28.132 22.3195 26.9018 24.1606C25.6716 26.0017 23.9231 27.4367 21.8774 28.284C19.8317 29.1314 17.5806 29.3531 15.4089 28.9211C13.2372 28.4891 11.2423 27.4229 9.67657 25.8571C8.11084 24.2914 7.04457 22.2966 6.61259 20.1248C6.1806 17.9531 6.40231 15.702 7.24968 13.6563C8.09704 11.6106 9.53201 9.86209 11.3731 8.63191C13.2142 7.40173 15.3788 6.74512 17.593 6.74512C19.0633 6.74512 20.5191 7.0347 21.8774 7.59733C23.2357 8.15996 24.4699 8.98462 25.5095 10.0242C26.5491 11.0638 27.3738 12.298 27.9364 13.6563C28.499 15.0146 28.7886 16.4705 28.7886 17.9407Z" stroke="black" stroke-width="1.80768" stroke-miterlimit="10"/>
</svg>
