<svg width="144" height="147" viewBox="0 0 144 147" fill="none" xmlns="http://www.w3.org/2000/svg">
<g id="Outline">
<path id="Vector" d="M60.1362 52.3083C60.854 52.7971 61.7275 53.0177 62.5977 52.93C63.1825 52.8785 63.7396 52.6625 64.2017 52.3083C64.6789 51.9165 65.0335 51.4012 65.225 50.8216L66.4695 46.7939L78.9702 45.4424L81.2656 49.1727C81.5743 49.6956 82.0239 50.1258 82.5655 50.4161C83.0916 50.6564 83.6754 50.7499 84.2525 50.6864C85.1165 50.5898 85.914 50.1857 86.4927 49.5511C86.7835 49.2621 87.0042 48.9128 87.1382 48.5291C87.2723 48.1454 87.3163 47.7371 87.267 47.3346C87.2056 46.8536 87.0356 46.3919 86.7692 45.983L74.2409 26.6016C73.8308 25.9824 73.2444 25.4938 72.5539 25.196C71.8425 24.9223 71.0741 24.8204 70.3137 24.8986C69.5464 24.9752 68.8126 25.2454 68.1842 25.6825C67.5729 26.1086 67.1173 26.7149 66.8844 27.4125L59.03 49.0375C58.8491 49.4931 58.7828 49.9844 58.8364 50.4702C58.9065 50.8494 59.0587 51.2096 59.2829 51.5267C59.5071 51.8437 59.798 52.1102 60.1362 52.3083ZM71.1987 32.4944L76.0109 40.6038L68.2948 41.4417L71.1987 32.4944Z" fill="black"/>
<path id="Vector_2" d="M44.1509 109.479C45.4119 109.05 46.5043 108.247 47.2761 107.182C48.2119 105.826 48.5867 104.173 48.3249 102.558C48.0632 100.943 47.1843 99.4845 45.8656 98.4776C43.8555 97.1247 41.4441 96.4594 39.0068 96.5854H29.0506C28.1497 96.5402 27.2664 96.8409 26.5892 97.4234C25.9979 98.0865 25.6996 98.9515 25.7595 99.8292V120.157C25.6996 121.034 25.9979 121.899 26.5892 122.562C27.2664 123.145 28.1497 123.446 29.0506 123.4H39.394C41.154 123.429 42.9023 123.117 44.5381 122.481C45.895 121.952 47.0733 121.063 47.9398 119.913C48.7266 118.773 49.1325 117.423 49.1014 116.048C49.1556 114.562 48.7086 113.099 47.8292 111.885C46.8976 110.72 45.6085 109.876 44.1509 109.479ZM32.7012 101.884H37.79C38.8207 101.804 39.8519 102.03 40.7492 102.532C41.073 102.767 41.3296 103.079 41.4943 103.439C41.659 103.799 41.7262 104.194 41.6895 104.587C41.7181 104.959 41.6463 105.332 41.4814 105.669C41.3164 106.006 41.0639 106.294 40.7492 106.506C39.8411 106.978 38.8163 107.193 37.79 107.128H32.7012V101.884ZM41.5789 117.454C40.6533 117.961 39.5942 118.186 38.5367 118.102H32.7289V112.399H38.5367C39.5981 112.307 40.6622 112.543 41.5789 113.074C41.903 113.338 42.1558 113.676 42.315 114.058C42.4741 114.44 42.5348 114.854 42.4915 115.264C42.5191 115.673 42.4512 116.082 42.2931 116.461C42.135 116.841 41.8908 117.18 41.5789 117.454Z" fill="black"/>
<path id="Vector_3" d="M130.078 73.5004H97.5267L100.873 73.1219C102.683 72.9322 104.436 72.3894 106.027 71.5258C107.618 70.6622 109.016 69.4953 110.138 68.0941C111.276 66.7077 112.124 65.1154 112.631 63.4085C113.139 61.7015 113.297 59.9135 113.097 58.1466L107.953 12.5449C107.764 10.7658 107.216 9.04112 106.339 7.47076C105.463 5.90041 104.277 4.51565 102.849 3.39675C101.421 2.27785 99.7807 1.44707 98.022 0.95257C96.2633 0.458067 94.4217 0.309678 92.6039 0.516004L43.1269 5.92225C41.3212 6.10531 39.5713 6.63967 37.9801 7.49386C36.389 8.34806 34.9888 9.50481 33.862 10.896C32.7237 12.2824 31.8764 13.8747 31.3686 15.5816C30.8608 17.2886 30.7025 19.0767 30.9028 20.8435L36.0469 66.5804C36.3616 69.1194 37.4069 71.5189 39.0614 73.5004H13.9219C10.2544 73.5004 6.73719 74.9243 4.14391 77.459C1.55064 79.9937 0.09375 83.4314 0.09375 87.016V132.969C0.09375 136.554 1.55064 139.991 4.14391 142.526C6.73719 145.061 10.2544 146.485 13.9219 146.485H60.9375C63.0842 146.485 65.2015 145.996 67.1216 145.058C69.0417 144.12 70.712 142.757 72 141.079C73.288 142.757 74.9583 144.12 76.8784 145.058C78.7985 145.996 80.9157 146.485 83.0625 146.485H130.078C133.746 146.485 137.263 145.061 139.856 142.526C142.449 139.991 143.906 136.554 143.906 132.969V87.016C143.906 83.4314 142.449 79.9937 139.856 77.459C137.263 74.9243 133.746 73.5004 130.078 73.5004ZM72 78.9066C71.3043 77.9925 70.4857 77.1742 69.5663 76.4738L75.0975 75.8521C73.9091 76.707 72.864 77.7375 72 78.9066ZM38.1764 14.356C39.5424 12.6811 41.5308 11.6025 43.7077 11.3555L93.2123 5.92225H94.125C96.1761 5.91009 98.1591 6.64096 99.6913 7.9738C101.224 9.30664 102.196 11.147 102.422 13.1396L107.649 58.7954C107.772 59.8552 107.68 60.9284 107.378 61.9534C107.076 62.9784 106.57 63.9351 105.889 64.7687C105.209 65.6024 104.366 66.2966 103.411 66.8115C102.455 67.3265 101.405 67.6521 100.32 67.7698L50.843 73.176C49.7501 73.3076 48.6414 73.2253 47.5814 72.9338C46.5214 72.6423 45.5314 72.1475 44.6691 71.4783C43.8067 70.8091 43.0893 69.9787 42.5587 69.0357C42.028 68.0927 41.6947 67.0559 41.5781 65.9857L36.4064 20.3299C36.2847 19.2693 36.3784 18.1957 36.6822 17.1705C36.9859 16.1454 37.4937 15.1889 38.1764 14.356ZM60.9375 141.079H13.9219C11.7214 141.079 9.61106 140.224 8.0551 138.703C6.49913 137.183 5.625 135.12 5.625 132.969V87.016C5.625 84.8653 6.49913 82.8026 8.0551 81.2818C9.61106 79.761 11.7214 78.9066 13.9219 78.9066H60.9375C63.138 78.9066 65.2483 79.761 66.8043 81.2818C68.3602 82.8026 69.2344 84.8653 69.2344 87.016V132.969C69.2344 135.12 68.3602 137.183 66.8043 138.703C65.2483 140.224 63.138 141.079 60.9375 141.079ZM138.375 132.969C138.375 135.12 137.501 137.183 135.945 138.703C134.389 140.224 132.279 141.079 130.078 141.079H83.0625C80.862 141.079 78.7517 140.224 77.1957 138.703C75.6398 137.183 74.7656 135.12 74.7656 132.969V87.016C74.7656 84.8653 75.6398 82.8026 77.1957 81.2818C78.7517 79.761 80.862 78.9066 83.0625 78.9066H130.078C132.279 78.9066 134.389 79.761 135.945 81.2818C137.501 82.8026 138.375 84.8653 138.375 87.016V132.969Z" fill="black"/>
<path id="Vector_4" d="M108.838 101.775C109.678 101.773 110.516 101.882 111.327 102.099C112.224 102.384 113.087 102.765 113.899 103.234C114.235 103.464 114.597 103.654 114.977 103.802C115.316 103.913 115.671 103.968 116.028 103.964C116.351 103.966 116.669 103.894 116.957 103.753C117.246 103.612 117.496 103.407 117.688 103.153C118.148 102.585 118.392 101.878 118.379 101.153C118.392 100.685 118.288 100.221 118.075 99.8014C117.854 99.3953 117.53 99.051 117.134 98.8013C114.584 97.0855 111.546 96.1966 108.45 96.2603C105.936 96.1986 103.449 96.7761 101.232 97.9363C99.19 99.0358 97.5256 100.7 96.4476 102.721C95.3378 104.991 94.7617 107.476 94.7617 109.992C94.7617 112.509 95.3378 114.993 96.4476 117.264C97.5078 119.324 99.174 121.028 101.232 122.156C103.449 123.316 105.936 123.894 108.45 123.832C111.546 123.896 114.584 123.007 117.134 121.291C117.525 121.036 117.848 120.693 118.075 120.291C118.285 119.871 118.389 119.407 118.379 118.94C118.392 118.215 118.148 117.508 117.688 116.939C117.496 116.686 117.246 116.48 116.957 116.339C116.669 116.199 116.351 116.126 116.028 116.128C115.718 116.123 115.41 116.169 115.116 116.263L113.899 116.858C112.765 117.345 111.825 117.723 111.133 117.966C110.402 118.206 109.636 118.325 108.865 118.318C107.906 118.39 106.943 118.244 106.051 117.892C105.158 117.541 104.361 116.993 103.721 116.291C102.452 114.466 101.857 112.273 102.034 110.073C101.861 107.891 102.456 105.716 103.721 103.91C104.347 103.192 105.135 102.626 106.023 102.255C106.911 101.885 107.874 101.72 108.838 101.775Z" fill="black"/>
</g>
</svg>
