<svg width="86" height="81" viewBox="0 0 86 81" fill="none" xmlns="http://www.w3.org/2000/svg">
<path d="M23.5065 67.5C18.135 67.5 13.5462 65.7281 9.74005 62.1844C5.93394 58.6406 4.0297 54.3094 4.02734 49.1906C4.02734 44.8031 5.4145 40.8938 8.1888 37.4625C10.9631 34.0313 14.5933 31.8375 19.0794 30.8813C20.5551 25.7062 23.5065 21.5156 27.9336 18.3094C32.3607 15.1031 37.378 13.5 42.9857 13.5C49.8919 13.5 55.751 15.7928 60.563 20.3783C65.3749 24.9638 67.7797 30.546 67.7773 37.125C71.8503 37.575 75.2302 39.249 77.9171 42.147C80.6041 45.045 81.9464 48.4335 81.944 52.3125C81.944 56.5313 80.3951 60.1178 77.2973 63.072C74.1996 66.0263 70.436 67.5023 66.0065 67.5H23.5065ZM23.5065 60.75H66.0065C68.4857 60.75 70.5812 59.9344 72.293 58.3031C74.0048 56.6719 74.8607 54.675 74.8607 52.3125C74.8607 49.95 74.0048 47.9531 72.293 46.3219C70.5812 44.6906 68.4857 43.875 66.0065 43.875H60.694V37.125C60.694 32.4563 58.9669 28.476 55.5126 25.1843C52.0582 21.8925 47.8826 20.2478 42.9857 20.25C38.0887 20.2523 33.9131 21.8981 30.4588 25.1876C27.0045 28.4771 25.2773 32.4563 25.2773 37.125H23.5065C20.0829 37.125 17.161 38.2781 14.7409 40.5844C12.3207 42.8906 11.1107 45.675 11.1107 48.9375C11.1107 52.2 12.3207 54.9844 14.7409 57.2906C17.161 59.5969 20.0829 60.75 23.5065 60.75Z" fill="#537F52"/>
</svg>
