<svg width="26" height="24" viewBox="0 0 26 24" fill="none" xmlns="http://www.w3.org/2000/svg">
<path d="M12.7832 1.22637C12.8352 1.06647 13.0614 1.06647 13.1134 1.22637L15.637 8.99337C15.6602 9.06488 15.7269 9.11331 15.8021 9.11331H23.9687C24.1369 9.11331 24.2069 9.32845 24.0708 9.42728L17.4638 14.2276C17.403 14.2718 17.3775 14.3501 17.4008 14.4216L19.9244 22.1886C19.9763 22.3484 19.7934 22.4816 19.6573 22.3826L13.0503 17.5824C12.9895 17.5382 12.9071 17.5382 12.8463 17.5824L6.23927 22.3826C6.10325 22.4816 5.92023 22.3484 5.97219 22.1886L8.49584 14.4216C8.51908 14.3501 8.49362 14.2718 8.43279 14.2276L1.82578 9.42728C1.68976 9.32845 1.75967 9.11331 1.9278 9.11331H10.0945C10.1697 9.11331 10.2364 9.06488 10.2596 8.99337L12.7832 1.22637Z" fill="#67C6B4" stroke="#67C6B4" stroke-width="1.73561"/>
</svg>
