<svg width="70" height="73" viewBox="0 0 70 73" fill="none" xmlns="http://www.w3.org/2000/svg">
<path d="M28.1376 2.35894C28.1641 1.83824 28.8386 1.65752 29.1219 2.09519L42.8826 23.3546C43.0093 23.5503 43.2469 23.6422 43.471 23.5822L67.8194 17.058C68.3208 16.9237 68.7021 17.5125 68.3757 17.9174L52.5319 37.5806C52.3861 37.7617 52.373 38.0167 52.4998 38.2125L66.2605 59.4718C66.5436 59.9094 66.1051 60.4545 65.62 60.2667L42.0673 51.1599C41.8504 51.076 41.6048 51.1418 41.4589 51.3229L25.6151 70.986C25.289 71.3911 24.6364 71.1384 24.663 70.6178L25.9504 45.3264C25.9623 45.0935 25.8235 44.8791 25.6066 44.7952L2.05386 35.6883C1.56896 35.5008 1.60463 34.8002 2.1059 34.6659L26.4544 28.1418C26.6785 28.0817 26.8383 27.8833 26.8502 27.6505L28.1376 2.35894Z" fill="#67C6B4" stroke="black" stroke-width="1.73561"/>
</svg>
