<svg width="32" height="32" viewBox="0 0 32 32" fill="none" xmlns="http://www.w3.org/2000/svg">
<path d="M31.6689 15.75C31.6689 23.6114 25.9093 30.1275 18.3797 31.3089V20.3038H22.0497L22.7474 15.75H18.3797V12.7954C18.3797 11.5506 18.9888 10.3346 20.9467 10.3346H22.9335V6.45859C22.9335 6.45859 21.1306 6.15072 19.4074 6.15072C15.8104 6.15072 13.4582 8.33016 13.4582 12.2793V15.75H9.45815V20.3038H13.4582V31.3089C5.92855 30.1275 0.168945 23.6114 0.168945 15.75C0.168945 7.05151 7.22046 0 15.9189 0C24.6174 0 31.6689 7.05151 31.6689 15.75ZM13.4582 31.3095C14.26 31.4358 15.0817 31.5 15.9189 31.5C15.0818 31.5 14.26 31.4347 13.4582 31.3089V31.3095ZM18.3797 31.3095V31.3089C18.2561 31.3283 18.1322 31.3462 18.0082 31.3626C18.1322 31.3464 18.2561 31.3286 18.3797 31.3095ZM18.0082 31.3626C17.3246 31.4532 16.6273 31.5 15.9189 31.5C16.6274 31.5 17.3247 31.4524 18.0082 31.3626Z" fill="#827F7F"/>
</svg>
