<svg width="33" height="32" viewBox="0 0 33 32" fill="none" xmlns="http://www.w3.org/2000/svg">
<path d="M16.8542 24.716L16.7211 24.849L16.5748 24.716C10.2539 18.9806 6.07548 15.1881 6.07548 11.3423C6.07548 8.68092 8.07154 6.68485 10.733 6.68485C12.7823 6.68485 14.7783 8.01556 15.4836 9.82533H17.9587C18.664 8.01556 20.66 6.68485 22.7093 6.68485C25.3708 6.68485 27.3668 8.68092 27.3668 11.3423C27.3668 15.1881 23.1884 18.9806 16.8542 24.716ZM22.7093 4.02344C20.3939 4.02344 18.1716 5.10131 16.7211 6.79131C15.2707 5.10131 13.0484 4.02344 10.733 4.02344C6.63438 4.02344 3.41406 7.23045 3.41406 11.3423C3.41406 16.3591 7.93847 20.471 14.7916 26.6854L16.7211 28.4419L18.6507 26.6854C25.5038 20.471 30.0282 16.3591 30.0282 11.3423C30.0282 7.23045 26.8079 4.02344 22.7093 4.02344Z" fill="#525252"/>
</svg>
