<svg width="28" height="27" viewBox="0 0 28 27" fill="none" xmlns="http://www.w3.org/2000/svg">
<path d="M14.1115 20.8687L13.999 20.9812L13.8753 20.8687C8.53152 16.02 4.99902 12.8137 4.99902 9.5625C4.99902 7.3125 6.68652 5.625 8.93652 5.625C10.669 5.625 12.3565 6.75 12.9528 8.28H15.0453C15.6415 6.75 17.329 5.625 19.0615 5.625C21.3115 5.625 22.999 7.3125 22.999 9.5625C22.999 12.8137 19.4665 16.02 14.1115 20.8687ZM19.0615 3.375C17.104 3.375 15.2253 4.28625 13.999 5.715C12.7728 4.28625 10.894 3.375 8.93652 3.375C5.47152 3.375 2.74902 6.08625 2.74902 9.5625C2.74902 13.8037 6.57402 17.28 12.3678 22.5337L13.999 24.0187L15.6303 22.5337C21.424 17.28 25.249 13.8037 25.249 9.5625C25.249 6.08625 22.5265 3.375 19.0615 3.375Z" fill="#525252"/>
</svg>
