<svg width="43" height="43" viewBox="0 0 43 43" fill="none" xmlns="http://www.w3.org/2000/svg">
<path d="M29.6478 37.4745C29.4843 37.4746 29.3224 37.4424 29.1713 37.3799C29.0201 37.3174 28.8828 37.2257 28.7672 37.1101L13.4202 21.7623C13.1868 21.5288 13.0557 21.2122 13.0557 20.882C13.0557 20.5519 13.1868 20.2352 13.4202 20.0018L28.7672 4.65398C28.8828 4.53832 29.02 4.44657 29.1711 4.38396C29.3221 4.32135 29.484 4.2891 29.6476 4.28906C29.8111 4.28902 29.973 4.32119 30.1241 4.38374C30.2752 4.44628 30.4125 4.53796 30.5281 4.65356C30.6438 4.76916 30.7355 4.90641 30.7981 5.05747C30.8608 5.20853 30.893 5.37044 30.893 5.53396C30.8931 5.69748 30.8609 5.85941 30.7984 6.0105C30.7358 6.16159 30.6441 6.29888 30.5285 6.41453L16.0615 20.8816L30.5285 35.3487C30.7028 35.5228 30.8215 35.7447 30.8695 35.9863C30.9176 36.2279 30.893 36.4784 30.7987 36.7059C30.7044 36.9335 30.5447 37.128 30.3399 37.2648C30.135 37.4016 29.8942 37.4746 29.6478 37.4745Z" fill="#484848"/>
</svg>
