<svg width="131" height="131" viewBox="0 0 131 131" fill="none" xmlns="http://www.w3.org/2000/svg">
<path d="M118.19 31.1513L94.5671 17.9278L94.2827 17.7653C94.2827 17.7653 94.2827 17.7653 94.1405 17.7653L93.8155 17.6231L76.5499 12.6872C76.3411 12.6563 76.1289 12.6563 75.9202 12.6872H75.6358C75.3643 12.7495 75.1084 12.8671 74.8842 13.0325C72.2342 15.0881 68.9756 16.2038 65.6217 16.2038C62.2679 16.2038 59.0093 15.0881 56.3592 13.0325C56.0931 12.8478 55.7867 12.7294 55.4655 12.6872H55.1811C54.9723 12.6569 54.7602 12.6569 54.5514 12.6872H54.4499L37.2045 17.5622C37.0478 17.6019 36.8973 17.6635 36.7577 17.745L12.8092 31.1513C12.3431 31.4123 11.9986 31.8465 11.8503 32.3598C11.702 32.873 11.7619 33.424 12.017 33.8935L22.5592 53.0685C22.7553 53.4246 23.0537 53.7136 23.4158 53.8983C23.7779 54.083 24.1871 54.1548 24.5905 54.1044L34.3405 53.3122C32.7561 65.7028 31.9842 106.389 31.8827 111.406C31.8722 111.878 32.0266 112.34 32.3195 112.71C32.6124 113.081 33.0254 113.338 33.4874 113.437L55.5264 118.312C55.9863 118.412 56.4665 118.349 56.8851 118.134C57.3038 117.919 57.6348 117.566 57.8217 117.134L65.4999 99.4419L73.178 117.093C73.3366 117.457 73.598 117.766 73.9301 117.982C74.2621 118.199 74.6503 118.314 75.0467 118.312H75.4733L97.5124 113.518C97.9743 113.419 98.3873 113.162 98.6802 112.792C98.9731 112.421 99.1276 111.96 99.1171 111.487C99.1171 106.47 98.2436 65.7841 96.6592 53.3935L106.511 54.145C106.914 54.1954 107.323 54.1236 107.685 53.939C108.048 53.7543 108.346 53.4652 108.542 53.1091L119.084 33.9341C119.213 33.6937 119.292 33.4298 119.317 33.1582C119.342 32.8865 119.312 32.6126 119.228 32.3529C119.145 32.0932 119.01 31.853 118.832 31.6465C118.653 31.4401 118.435 31.2716 118.19 31.1513ZM74.4577 18.07C74.7217 20.9747 74.6811 25.4435 72.4264 28.2263C71.5781 29.2132 70.5083 29.9853 69.3045 30.4796C68.1006 30.9738 66.7969 31.1761 65.4999 31.07C64.2078 31.1835 62.9072 30.9907 61.7037 30.5072C60.5002 30.0236 59.4277 29.2631 58.5733 28.2872C56.3186 25.4435 56.278 20.9747 56.542 18.131C59.3071 19.5819 62.3849 20.3348 65.5074 20.3242C68.63 20.3135 71.7026 19.5397 74.4577 18.07ZM25.4842 49.9606L16.5467 33.7106L37.1842 22.1528C45.0045 33.6294 37.7733 46.0606 35.6811 49.1685L25.4842 49.9606ZM76.2655 113.945L67.3686 93.531C67.2125 93.1645 66.9522 92.8521 66.6199 92.6325C66.2876 92.4129 65.8981 92.2958 65.4999 92.2958C65.1016 92.2958 64.7121 92.4129 64.3798 92.6325C64.0476 92.8521 63.7872 93.1645 63.6311 93.531L54.7545 113.945L35.9858 109.883C36.2905 94.2013 37.2655 58.045 38.6874 52.0122C40.8869 48.7606 42.5596 45.1822 43.6436 41.4091C44.7396 37.9778 45.082 34.3503 44.6473 30.7746C44.2126 27.1988 43.0111 23.7591 41.1249 20.6903L52.5608 17.5216C52.2155 21.0763 52.2561 26.8044 55.4249 30.7856C56.4031 32.0067 57.622 33.0137 59.0057 33.744C60.3894 34.4743 61.9085 34.9123 63.4686 35.031V54.2872H58.878C58.3393 54.2872 57.8226 54.5012 57.4417 54.8821C57.0607 55.2631 56.8467 55.7797 56.8467 56.3185C56.8467 56.8572 57.0607 57.3738 57.4417 57.7548C57.8226 58.1357 58.3393 58.3497 58.878 58.3497H65.4999C66.0386 58.3497 66.5552 58.1357 66.9362 57.7548C67.3171 57.3738 67.5311 56.8572 67.5311 56.3185V35.031C69.1037 34.9258 70.6375 34.4961 72.0359 33.7689C73.4342 33.0418 74.6668 32.0329 75.6561 30.806C78.8249 26.7435 78.8655 21.0966 78.5202 17.5419L89.9764 20.8122C88.0856 23.8712 86.878 27.3025 86.4363 30.8715C85.9945 34.4404 86.3291 38.0627 87.4171 41.4903C88.4721 45.2156 90.118 48.7475 92.292 51.9513C93.7342 57.5981 94.7092 94.1606 95.0139 109.964L76.2655 113.945ZM105.515 49.9606L95.3592 49.1888C93.328 46.081 86.1374 33.5481 93.8358 22.1731L114.453 33.7106L105.515 49.9606Z" fill="black"/>
<path d="M71.98 38.8701C71.6296 38.8701 71.2871 38.9743 70.9961 39.1694C70.7051 39.3645 70.4786 39.6417 70.3454 39.9658C70.2123 40.2899 70.1785 40.6463 70.2484 40.9896C70.3182 41.333 70.4886 41.6478 70.7377 41.8941C70.9869 42.1404 71.3037 42.3071 71.6478 42.373C71.992 42.4389 72.3479 42.4009 72.6704 42.2641C72.993 42.1272 73.2675 41.8975 73.4593 41.6043C73.651 41.311 73.7512 40.9673 73.7472 40.617C73.7418 40.1518 73.5533 39.7075 73.2224 39.3805C72.8916 39.0535 72.4451 38.8701 71.98 38.8701Z" fill="black"/>
<path d="M71.98 48.1525C71.6296 48.1525 71.2871 48.2567 70.9961 48.4518C70.7051 48.6469 70.4786 48.9241 70.3454 49.2482C70.2123 49.5722 70.1785 49.9286 70.2484 50.272C70.3182 50.6153 70.4886 50.9301 70.7377 51.1764C70.9869 51.4228 71.3037 51.5894 71.6478 51.6553C71.992 51.7212 72.3479 51.6833 72.6704 51.5464C72.993 51.4095 73.2675 51.1799 73.4593 50.8866C73.651 50.5933 73.7512 50.2497 73.7472 49.8993C73.7472 49.6682 73.7013 49.4394 73.6123 49.2261C73.5232 49.0128 73.3927 48.8194 73.2283 48.6569C73.064 48.4944 72.869 48.3661 72.6547 48.2796C72.4404 48.193 72.2111 48.1498 71.98 48.1525Z" fill="black"/>
</svg>
