<svg width="73" height="70" viewBox="0 0 73 70" fill="none" xmlns="http://www.w3.org/2000/svg">
<path d="M68.9534 21.978C71.2694 36.9097 62.1196 53.3826 55.5304 55.0706C54.7965 55.6007 54.0055 56.0981 53.1737 56.5467C50.6946 57.8841 48.1339 58.6506 45.7772 58.8708C38.8781 60.5833 24.3624 56.563 14.1117 49.7862C12.2442 48.5549 -0.558999 40.0819 1.2677 34.1533C2.82529 29.0973 14.5928 27.3358 23.922 29.5295C22.2666 27.4174 20.7498 25.2155 19.4613 22.9811C18.3359 21.0402 10.6377 7.75588 14.919 3.27069C18.6784 -0.668133 30.5601 3.32777 37.9077 9.76199C41.4224 12.8445 44.1951 16.7344 46.2257 20.8119C46.2583 20.6325 46.2828 20.4449 46.3154 20.2573C46.7068 18.0474 49.3408 2.92002 55.5141 2.23501C60.9208 1.63155 67.461 12.3308 68.9534 21.9862V21.978Z" stroke="#F28F2B" stroke-width="2" stroke-miterlimit="10"/>
<path d="M70.7229 31.0054C73.0389 45.937 63.8891 62.4099 57.2999 64.098C56.566 64.628 55.775 65.1255 54.9432 65.574C52.4641 66.9114 49.9035 67.678 47.5467 67.8982C40.6476 69.6107 26.1319 65.5903 15.8812 58.8136C14.0137 57.5822 1.21053 49.1093 3.03723 43.1806C4.59482 38.1246 16.3623 36.3632 25.6915 38.5568C24.0361 36.4447 22.5193 34.2429 21.2308 32.0084C20.1054 30.0676 12.4072 16.7832 16.6885 12.298C20.4479 8.35921 32.3296 12.3551 39.6772 18.7893C43.192 21.8719 45.9646 25.7618 47.9952 29.8392C48.0278 29.6598 48.0523 29.4723 48.0849 29.2847C48.4763 27.0747 51.1104 11.9474 57.2836 11.2624C62.6903 10.6589 69.2306 21.3581 70.7229 31.0135V31.0054Z" stroke="#F28F2B" stroke-width="2" stroke-miterlimit="10"/>
</svg>
