<svg width="73" height="69" viewBox="0 0 73 69" fill="none" xmlns="http://www.w3.org/2000/svg">
<path d="M68.9534 21.3862C71.2694 36.3179 62.1196 52.7908 55.5304 54.4788C54.7965 55.0089 54.0055 55.5063 53.1737 55.9549C50.6946 57.2923 48.1339 58.0588 45.7772 58.279C38.8781 59.9915 24.3624 55.9712 14.1117 49.1944C12.2442 47.9631 -0.558999 39.4901 1.2677 33.5615C2.82529 28.5055 14.5928 26.744 23.922 28.9377C22.2666 26.8256 20.7498 24.6237 19.4613 22.3893C18.3359 20.4484 10.6377 7.16408 14.919 2.67889C18.6784 -1.25993 30.5601 2.73597 37.9077 9.17019C41.4224 12.2527 44.1951 16.1426 46.2257 20.2201C46.2583 20.0407 46.2828 19.8531 46.3154 19.6656C46.7068 17.4556 49.3408 2.32822 55.5141 1.64321C60.9208 1.03975 67.461 11.739 68.9534 21.3944V21.3862Z" stroke="#F28F2B" stroke-width="2" stroke-miterlimit="10"/>
<path d="M70.7229 30.4136C73.0389 45.3452 63.8891 61.8181 57.2999 63.5062C56.566 64.0362 55.775 64.5337 54.9432 64.9822C52.4641 66.3196 49.9035 67.0862 47.5467 67.3064C40.6476 69.0189 26.1319 64.9985 15.8812 58.2218C14.0137 56.9904 1.21053 48.5175 3.03723 42.5889C4.59482 37.5328 16.3623 35.7714 25.6915 37.965C24.0361 35.8529 22.5193 33.6511 21.2308 31.4166C20.1054 29.4758 12.4072 16.1914 16.6885 11.7062C20.4479 7.76741 32.3296 11.7633 39.6772 18.1975C43.192 21.2801 45.9646 25.17 47.9952 29.2474C48.0278 29.068 48.0523 28.8805 48.0849 28.6929C48.4763 26.4829 51.1104 11.3556 57.2836 10.6706C62.6903 10.0671 69.2306 20.7663 70.7229 30.4217V30.4136Z" stroke="#F28F2B" stroke-width="2" stroke-miterlimit="10"/>
</svg>
