<svg width="73" height="70" viewBox="0 0 73 70" fill="none" xmlns="http://www.w3.org/2000/svg">
<path d="M69.4534 21.978C71.7694 36.9097 62.6196 53.3826 56.0304 55.0706C55.2965 55.6007 54.5055 56.0981 53.6737 56.5467C51.1946 57.8841 48.6339 58.6506 46.2772 58.8708C39.3781 60.5833 24.8624 56.563 14.6117 49.7862C12.7442 48.5549 -0.0589987 40.0819 1.7677 34.1533C3.32529 29.0973 15.0928 27.3358 24.422 29.5295C22.7666 27.4174 21.2498 25.2155 19.9613 22.9811C18.8359 21.0402 11.1377 7.75588 15.419 3.27069C19.1784 -0.668133 31.0601 3.32777 38.4077 9.76199C41.9224 12.8445 44.6951 16.7344 46.7257 20.8119C46.7583 20.6325 46.7828 20.4449 46.8154 20.2573C47.2068 18.0474 49.8408 2.92002 56.0141 2.23501C61.4208 1.63155 67.961 12.3308 69.4534 21.9862V21.978Z" stroke="#F28F2B" stroke-width="2" stroke-miterlimit="10"/>
<path d="M71.2229 31.0054C73.5389 45.937 64.3891 62.4099 57.8 64.098C57.066 64.628 56.275 65.1255 55.4432 65.574C52.9641 66.9114 50.4035 67.678 48.0467 67.8982C41.1476 69.6107 26.6319 65.5903 16.3812 58.8136C14.5137 57.5822 1.71053 49.1093 3.53723 43.1806C5.09482 38.1246 16.8623 36.3632 26.1916 38.5568C24.5361 36.4447 23.0193 34.2429 21.7308 32.0084C20.6054 30.0676 12.9072 16.7832 17.1885 12.298C20.9479 8.35921 32.8296 12.3551 40.1772 18.7893C43.692 21.8719 46.4646 25.7618 48.4952 29.8392C48.5278 29.6598 48.5523 29.4723 48.5849 29.2847C48.9763 27.0747 51.6104 11.9474 57.7836 11.2624C63.1903 10.6589 69.7306 21.3581 71.2229 31.0135V31.0054Z" stroke="#F28F2B" stroke-width="2" stroke-miterlimit="10"/>
</svg>
