<svg width="80" height="82" viewBox="0 0 80 82" fill="none" xmlns="http://www.w3.org/2000/svg">
<mask id="mask0_4322_3245" style="mask-type:luminance" maskUnits="userSpaceOnUse" x="20" y="2" width="32" height="61">
<path d="M42.6178 62.4299C35.0911 63.8912 23.8046 43.8605 21.2641 26.2396C20.8875 23.6353 18.3129 5.78439 24.9476 2.76489C30.7698 0.11171 41.9773 9.67756 47.1681 19.909C55.8406 37.0009 50.2595 60.9516 42.6244 62.4305L42.6178 62.4299Z" fill="white"/>
</mask>
<g mask="url(#mask0_4322_3245)">
<path d="M29.1718 10.0819C29.6316 13.4484 30.0975 16.822 30.9439 20.1206C31.3464 21.6979 31.8368 23.2626 32.4456 24.7704C33.087 26.3678 33.9668 27.8315 34.6641 29.4001C35.3613 30.9688 35.6123 32.6805 35.7968 34.3866C35.9968 36.2277 36.1769 38.0672 36.3696 39.9143C36.7591 43.6424 37.1419 47.3699 37.5313 51.098C37.9753 55.3719 38.4192 59.6459 38.8626 63.9264C38.9629 64.8838 40.4362 64.6062 40.336 63.6489C39.5527 56.0854 38.7695 48.522 37.9862 40.9586C37.7946 39.0981 37.5968 37.2305 37.4051 35.37C37.2327 33.6783 37.0891 31.9622 36.5982 30.3239C36.1072 28.6857 35.2832 27.3537 34.5715 25.8774C33.8599 24.401 33.2362 22.7517 32.7646 21.1217C31.6905 17.4299 31.1617 13.6099 30.6451 9.80438C30.5112 8.85091 29.0378 9.12847 29.1718 10.0819Z" fill="#F28F2B"/>
<path d="M33.0265 21.518C32.4722 18.0033 33.9336 14.5973 35.2942 11.4368C35.6762 10.5466 34.269 10.0345 33.8876 10.9181C32.4173 14.3501 30.9564 17.99 31.5532 21.7956C31.7004 22.7502 33.1738 22.4726 33.0265 21.518Z" fill="#F28F2B"/>
<path d="M32.27 19.6907C32.4578 18.8043 31.7829 18.006 31.0243 17.6484C30.5809 17.4376 30.0837 17.3892 29.6154 17.2364C29.225 17.1102 28.8961 16.8888 28.5699 16.6343C27.8683 16.0743 27.231 15.4663 26.463 14.981C25.6254 14.4497 24.733 14.0141 23.8478 13.5725C23.4818 13.3948 23.0116 13.6628 22.8881 14.02C22.7331 14.4347 22.9697 14.802 23.3357 14.9797C24.0605 15.3411 24.786 15.6959 25.4782 16.1281C26.1704 16.5603 26.7823 17.0726 27.3993 17.6055C28.0162 18.1383 28.6189 18.5229 29.3775 18.7201C29.7895 18.8281 30.9038 18.9281 30.7708 19.5585C30.6844 19.9522 31.0868 20.3334 31.4518 20.364C31.8964 20.4012 32.1775 20.0772 32.2573 19.683L32.27 19.6907Z" fill="#F28F2B"/>
<path d="M35.6985 29.3455C34.0545 29.1878 32.7521 27.9828 31.5037 27.0095C30.1802 25.9764 28.6953 24.9566 26.9427 24.9769C26.5412 24.9833 26.1728 25.2332 26.1372 25.6579C26.1061 26.0295 26.4167 26.4698 26.8182 26.4633C28.4773 26.4419 29.7809 27.5535 31.0159 28.5256C32.3704 29.588 33.7978 30.6565 35.5674 30.8314C36.5285 30.9253 36.6536 29.4322 35.6925 29.3383L35.6985 29.3455Z" fill="#F28F2B"/>
<path d="M36.3537 29.816C37.4881 26.7234 38.2974 23.5234 38.7777 20.2625C38.918 19.3052 37.4244 19.1868 37.2846 20.1374C36.8221 23.2662 36.0377 26.328 34.947 29.2972C34.6171 30.2052 36.0243 30.7173 36.3537 29.816Z" fill="#F28F2B"/>
<path d="M38.0787 40.9863C41.2323 37.8022 43.7136 34.0272 45.3661 29.8554C45.7221 28.9563 44.3148 28.4442 43.9594 29.3366C42.4082 33.2563 40.0829 36.8439 37.112 39.8428C36.4403 40.5217 37.3999 41.6712 38.0787 40.9863Z" fill="#F28F2B"/>
<path d="M36.8613 41.6333C34.6965 38.358 31.3047 35.9288 27.5125 34.9295C27.1205 34.8232 26.7007 34.9685 26.5528 35.3771C26.4233 35.7271 26.6012 36.2365 27.0004 36.3368C30.583 37.285 33.6779 39.5089 35.7245 42.6006C35.9499 42.9403 36.4991 42.9261 36.7796 42.689C37.1176 42.4032 37.0934 41.9735 36.8679 41.6338L36.8613 41.6333Z" fill="#F28F2B"/>
<path d="M39.0559 51.172C42.2591 48.3529 45.0521 45.0851 47.3254 41.4798C47.8411 40.6677 46.6171 39.8033 46.1014 40.6155C43.8901 44.1191 41.1988 47.2884 38.0897 50.0218C37.3683 50.6564 38.3345 51.8065 39.0565 51.1653L39.0559 51.172Z" fill="#F28F2B"/>
<path d="M38.0732 51.0897C35.2731 48.8571 32.4204 46.6936 29.508 44.6053C28.7196 44.0448 27.8619 45.2694 28.6437 45.8293C31.5561 47.9176 34.4093 50.0745 37.2089 52.3138C37.9668 52.9185 38.8185 51.6868 38.0732 51.0897Z" fill="#F28F2B"/>
</g>
<path d="M42.6178 62.43C35.0911 63.8912 23.8046 43.8605 21.2641 26.2397C20.8875 23.6353 18.3129 5.78439 24.9476 2.76489C30.7698 0.11171 41.9773 9.67756 47.1681 19.909C55.8406 37.0009 50.2595 60.9516 42.6244 62.4305L42.6178 62.43Z" stroke="#F28F2B" stroke-width="2" stroke-miterlimit="10"/>
<mask id="mask1_4322_3245" style="mask-type:luminance" maskUnits="userSpaceOnUse" x="41" y="19" width="36" height="59">
<path d="M44.8302 76.48C38.1252 72.7576 42.3564 50.1641 51.7364 35.0318C53.1265 32.7959 62.6233 17.4663 69.6437 19.4175C75.8086 21.13 78.2474 35.655 75.6474 46.8311C71.3045 65.4926 51.6308 80.2572 44.8296 76.4867L44.8302 76.48Z" fill="white"/>
</mask>
<g mask="url(#mask1_4322_3245)">
<path d="M46.7214 76.0774C46.9765 74.388 47.9316 72.9577 48.8441 71.5573C49.7566 70.1569 50.7167 68.6669 51.6337 67.2134C53.4986 64.2555 55.2999 61.2589 57.0504 58.2312C60.4739 52.3032 63.6745 46.2429 66.6507 40.0702C68.3732 36.4989 70.0188 32.8878 71.587 29.2435C71.969 28.3533 70.5618 27.8412 70.1804 28.7247C64.5894 41.7018 58.0121 54.2488 50.4943 66.2158C49.4761 67.8413 48.4258 69.4507 47.3827 71.054C46.3932 72.5749 45.5011 74.1308 45.2283 75.9523C45.0813 76.909 46.575 77.0274 46.7214 76.0774Z" fill="#F28F2B"/>
<path d="M48.3317 71.1462C47.4896 68.1153 46.9832 64.9855 46.8662 61.8349C46.8531 61.4328 46.6232 61.0661 46.1852 61.0294C45.8202 60.9988 45.36 61.3078 45.3797 61.7104C45.5055 64.9954 45.9881 68.2501 46.8655 71.4176C47.1223 72.3413 48.5951 72.0704 48.3389 71.1401L48.3317 71.1462Z" fill="#F28F2B"/>
<path d="M52.275 65.2283L62.7545 60.6663C63.6422 60.2796 62.9935 58.9288 62.1058 59.3156L51.6264 63.8775C50.7386 64.2642 51.3873 65.615 52.275 65.2283Z" fill="#F28F2B"/>
<path d="M57.9141 56.305C57.5328 52.9586 57.1521 49.6054 56.7708 46.2589C56.6639 45.3011 55.1906 45.5786 55.2975 46.5365L56.4408 56.5826C56.5477 57.5405 58.021 57.2629 57.9141 56.305Z" fill="#F28F2B"/>
<path d="M63.6919 48.3624C65.7647 48.1885 67.7681 47.3271 69.3392 45.9618C69.6418 45.6998 69.689 45.216 69.4276 44.9067C69.1661 44.5975 68.6756 44.5497 68.3725 44.8183C67.6516 45.4463 66.9541 45.8757 66.0602 46.2552C65.2427 46.6011 64.3633 46.8081 63.4143 46.889C63.0106 46.922 62.7505 47.3947 62.8134 47.7609C62.8906 48.195 63.2815 48.3948 63.6852 48.3618L63.6919 48.3624Z" fill="#F28F2B"/>
<path d="M65.9018 38.6444C65.0826 36.3772 64.264 34.1034 63.4448 31.8363C63.3094 31.4574 62.7864 31.32 62.4451 31.4852C62.0485 31.6725 61.9526 32.0989 62.094 32.4849C62.9132 34.7521 63.7318 37.0259 64.551 39.2931C64.6864 39.672 65.2095 39.8093 65.5507 39.6441C65.9473 39.4568 66.0432 39.0305 65.9018 38.6444Z" fill="#F28F2B"/>
<path d="M69.015 34.7352C70.1891 34.5996 71.356 34.4702 72.5301 34.3346C72.9217 34.2872 73.2133 33.8372 73.1311 33.4628C73.0322 33.0468 72.6773 32.8166 72.2592 32.8618C71.0851 32.9974 69.9182 33.1268 68.744 33.2624C68.3525 33.3098 68.0608 33.7598 68.1431 34.1343C68.2419 34.5502 68.5968 34.7804 69.015 34.7352Z" fill="#F28F2B"/>
</g>
<path d="M44.8302 76.481C38.1252 72.7586 42.3564 50.165 51.7364 35.0328C53.1265 32.7969 62.6233 17.4673 69.6437 19.4185C75.8086 21.131 78.2474 35.656 75.6474 46.832C71.3045 65.4936 51.6308 80.2582 44.8296 76.4877L44.8302 76.481Z" stroke="#F28F2B" stroke-width="2" stroke-miterlimit="10"/>
<mask id="mask2_4322_3245" style="mask-type:luminance" maskUnits="userSpaceOnUse" x="3" y="25" width="39" height="54">
<path d="M40.3761 76.9902C45.3089 71.9504 36.9511 50.7817 25.7672 37.9835C24.1144 36.0942 12.784 23.13 7.2087 26.5055C2.30935 29.4699 3.29037 44.1668 7.85566 54.5263C15.4879 71.8318 35.3702 82.1042 40.3761 76.9902Z" fill="white"/>
</mask>
<g mask="url(#mask2_4322_3245)">
<path d="M39.9745 76.4489C38.9454 73.5761 36.3483 71.3939 34.3627 69.1694C32.0964 66.6273 29.8738 64.0421 27.7015 61.4143C23.3929 56.2086 19.2718 50.8382 15.3493 45.3307C13.0772 42.1399 10.8698 38.8944 8.73204 35.6146C8.20479 34.8087 7.06738 35.7826 7.58854 36.5814C14.9794 47.9126 23.1618 58.7286 32.1082 68.8803C33.3165 70.2512 34.5398 71.6033 35.7703 72.9493C36.9217 74.2018 38.0394 75.4582 38.6183 77.0838C38.9431 77.9931 40.2944 77.3377 39.969 76.4351L39.9745 76.4489Z" fill="#F28F2B"/>
<path d="M37.6735 72.5607C37.7545 69.2797 37.5081 65.998 36.9233 62.7681C36.7489 61.8179 35.2756 62.0955 35.4499 63.0456C36.0122 66.1466 36.2569 69.2879 36.1804 72.4357C36.1535 73.3957 37.646 73.5274 37.6735 72.5607Z" fill="#F28F2B"/>
<path d="M32.0494 66.142C28.7509 65.3913 25.4525 64.6405 22.1535 63.8965C21.7537 63.8028 21.3488 63.9293 21.1938 64.344C21.0648 64.6874 21.241 65.2167 21.6413 65.3037C24.9398 66.0544 28.2383 66.8051 31.5373 67.5492C31.9371 67.6428 32.3419 67.5164 32.4969 67.1017C32.6259 66.7583 32.4497 66.229 32.0494 66.142Z" fill="#F28F2B"/>
<path d="M26.3653 59.8861C25.984 56.5396 25.6033 53.1865 25.222 49.84C25.1151 48.8821 23.6417 49.1597 23.7486 50.1175C24.1299 53.464 24.5107 56.8172 24.892 60.1637C24.9988 61.1215 26.4722 60.844 26.3653 59.8861Z" fill="#F28F2B"/>
<path d="M18.1977 52.0249C16.689 52.2461 15.1009 51.8992 13.7728 51.0796C13.4295 50.8704 12.971 50.9189 12.7287 51.2595C12.5084 51.5752 12.5652 52.0945 12.9085 52.3037C14.5804 53.3258 16.5208 53.7756 18.4692 53.4911C18.8685 53.431 19.138 53.0058 19.0701 52.6192C18.9912 52.205 18.597 51.9648 18.1983 52.0183L18.1977 52.0249Z" fill="#F28F2B"/>
<path d="M15.8402 44.7236C16.0602 42.3363 16.2802 39.949 16.5002 37.5617C16.5875 36.6 15.0943 36.475 15.0071 37.4366C14.7871 39.8239 14.5671 42.2112 14.3471 44.5985C14.2599 45.5602 15.753 45.6853 15.8402 44.7236Z" fill="#F28F2B"/>
<path d="M10.7896 39.8428C9.76422 39.9574 8.73169 40.0781 7.70634 40.1927C7.31478 40.2401 7.02314 40.6902 7.10539 41.0646C7.20421 41.4805 7.55915 41.7107 7.97725 41.6655C9.0026 41.5509 10.0351 41.4303 11.0605 41.3157C11.4521 41.2683 11.7437 40.8182 11.6614 40.4438C11.5626 40.0279 11.2077 39.7977 10.7896 39.8428Z" fill="#F28F2B"/>
</g>
<path d="M40.3761 76.9903C45.3089 71.9504 36.9511 50.7817 25.7672 37.9835C24.1144 36.0942 12.784 23.13 7.2087 26.5055C2.30935 29.4699 3.29037 44.1668 7.85566 54.5263C15.4879 71.8318 35.3702 82.1042 40.3761 76.9903Z" stroke="#F28F2B" stroke-width="2" stroke-miterlimit="10"/>
</svg>
