<svg width="32" height="32" viewBox="0 0 32 32" fill="none" xmlns="http://www.w3.org/2000/svg">
<path d="M31.6699 15.75C31.6699 23.6114 25.9103 30.1275 18.3807 31.3089V20.3038H22.0507L22.7484 15.75H18.3807V12.7954C18.3807 11.5506 18.9897 10.3346 20.9477 10.3346H22.9344V6.45859C22.9344 6.45859 21.1315 6.15072 19.4084 6.15072C15.8114 6.15072 13.4592 8.33016 13.4592 12.2793V15.75H9.45912V20.3038H13.4592V31.3089C5.92953 30.1275 0.169922 23.6114 0.169922 15.75C0.169922 7.05151 7.22144 0 15.9199 0C24.6184 0 31.6699 7.05151 31.6699 15.75ZM13.4592 31.3095C14.261 31.4358 15.0827 31.5 15.9199 31.5C15.0828 31.5 14.261 31.4347 13.4592 31.3089V31.3095ZM18.3807 31.3095V31.3089C18.257 31.3283 18.1332 31.3462 18.0092 31.3626C18.1332 31.3464 18.257 31.3286 18.3807 31.3095ZM18.0092 31.3626C17.3256 31.4532 16.6282 31.5 15.9199 31.5C16.6283 31.5 17.3257 31.4524 18.0092 31.3626Z" fill="#827F7F"/>
</svg>
