<svg width="29" height="29" viewBox="0 0 29 29" fill="none" xmlns="http://www.w3.org/2000/svg">
<path d="M14.5013 10.4743C13.3674 10.4743 12.2798 10.9248 11.478 11.7266C10.6762 12.5284 10.2257 13.6159 10.2257 14.7499C10.2257 15.8838 10.6762 16.9713 11.478 17.7731C12.2798 18.575 13.3674 19.0254 14.5013 19.0254C15.6352 19.0254 16.7227 18.575 17.5246 17.7731C18.3264 16.9713 18.7768 15.8838 18.7768 14.7499C18.7768 13.6159 18.3264 12.5284 17.5246 11.7266C16.7227 10.9248 15.6352 10.4743 14.5013 10.4743ZM14.5013 7.62396C16.3912 7.62396 18.2037 8.37472 19.5401 9.71109C20.8764 11.0475 21.6272 12.86 21.6272 14.7499C21.6272 16.6398 20.8764 18.4523 19.5401 19.7887C18.2037 21.125 16.3912 21.8758 14.5013 21.8758C12.6114 21.8758 10.7989 21.125 9.46252 19.7887C8.12615 18.4523 7.37538 16.6398 7.37538 14.7499C7.37538 12.86 8.12615 11.0475 9.46252 9.71109C10.7989 8.37472 12.6114 7.62396 14.5013 7.62396ZM23.765 7.26766C23.765 7.74014 23.5773 8.19327 23.2432 8.52736C22.9091 8.86145 22.456 9.04914 21.9835 9.04914C21.511 9.04914 21.0579 8.86145 20.7238 8.52736C20.3897 8.19327 20.202 7.74014 20.202 7.26766C20.202 6.79519 20.3897 6.34206 20.7238 6.00797C21.0579 5.67388 21.511 5.48619 21.9835 5.48619C22.456 5.48619 22.9091 5.67388 23.2432 6.00797C23.5773 6.34206 23.765 6.79519 23.765 7.26766ZM14.5013 3.34841C10.9754 3.34841 10.3996 3.35839 8.75924 3.43107C7.64189 3.4838 6.89225 3.63345 6.19676 3.90423C5.61474 4.11792 5.08855 4.46043 4.65756 4.90614C4.21149 5.33711 3.86851 5.86327 3.65423 6.44533C3.38345 7.14367 3.2338 7.89189 3.1825 9.00781C3.10839 10.5812 3.09841 11.1313 3.09841 14.7499C3.09841 18.2772 3.10839 18.8515 3.18107 20.4919C3.2338 21.6078 3.38345 22.3589 3.65281 23.053C3.89509 23.6729 4.18013 24.119 4.65329 24.5922C5.13357 25.071 5.57965 25.3575 6.19248 25.5941C6.89652 25.8663 7.64617 26.0174 8.75781 26.0687C10.3312 26.1428 10.8813 26.1513 14.4999 26.1513C18.0272 26.1513 18.6015 26.1414 20.2419 26.0687C21.3564 26.0159 22.1061 25.8663 22.803 25.5969C23.3845 25.3822 23.9104 25.0398 24.3422 24.595C24.8225 24.1162 25.1089 23.6701 25.3455 23.0558C25.6163 22.3546 25.7674 21.605 25.8187 20.4905C25.8928 18.9185 25.9013 18.367 25.9013 14.7499C25.9013 11.224 25.8914 10.6482 25.8187 9.00781C25.7659 7.89332 25.6149 7.14082 25.3455 6.44533C25.1307 5.86388 24.7883 5.33794 24.3436 4.90614C23.9128 4.45983 23.3866 4.11682 22.8044 3.90281C22.1061 3.63202 21.3564 3.48238 20.2419 3.43107C18.67 3.35696 18.1198 3.34841 14.4999 3.34841M14.4999 0.498047C18.3721 0.498047 18.8552 0.512299 20.3759 0.583558C21.8923 0.654817 22.927 0.892823 23.8348 1.24627C24.7754 1.60826 25.5678 2.09853 26.3602 2.8895C27.0849 3.60195 27.6457 4.46374 28.0035 5.41493C28.3555 6.32277 28.5949 7.35745 28.6662 8.87527C28.7332 10.3945 28.7517 10.8777 28.7517 14.7499C28.7517 18.6221 28.7374 19.1052 28.6662 20.6245C28.5949 22.1423 28.3555 23.1755 28.0035 24.0848C27.6467 25.0365 27.0858 25.8985 26.3602 26.6102C25.6476 27.3347 24.7859 27.8954 23.8348 28.2535C22.927 28.6055 21.8923 28.8449 20.3759 28.9162C18.8552 28.9832 18.3721 29.0017 14.4999 29.0017C10.6277 29.0017 10.1445 28.9874 8.62384 28.9162C7.10745 28.8449 6.07419 28.6055 5.16493 28.2535C4.21337 27.8964 3.35142 27.3356 2.6395 26.6102C1.9147 25.8979 1.35393 25.0361 0.996268 24.0848C0.642823 23.177 0.404817 22.1423 0.333558 20.6245C0.265149 19.1052 0.248047 18.6221 0.248047 14.7499C0.248047 10.8777 0.262299 10.3945 0.333558 8.87527C0.404817 7.35745 0.642823 6.32419 0.996268 5.41493C1.3529 4.46316 1.91381 3.60113 2.6395 2.8895C3.35163 2.16441 4.21352 1.6036 5.16493 1.24627C6.07277 0.892823 7.10602 0.654817 8.62384 0.583558C10.1459 0.516574 10.6291 0.498047 14.5013 0.498047" fill="#827F7F"/>
</svg>
