<svg width="17" height="17" viewBox="0 0 17 17" fill="none" xmlns="http://www.w3.org/2000/svg">
<g clip-path="url(#clip0_4340_249)">
<path d="M8.85645 0.762695C4.44511 0.762695 0.856445 4.35136 0.856445 8.7627C0.856445 13.174 4.44511 16.7627 8.85645 16.7627C13.2678 16.7627 16.8564 13.174 16.8564 8.7627C16.8564 4.35136 13.2678 0.762695 8.85645 0.762695ZM8.85645 15.4294C5.18045 15.4294 2.18978 12.4387 2.18978 8.7627C2.18978 5.0867 5.18045 2.09603 8.85645 2.09603C12.5324 2.09603 15.5231 5.0867 15.5231 8.7627C15.5231 12.4387 12.5324 15.4294 8.85645 15.4294ZM6.68978 7.99003V9.53536C6.68978 10.6907 7.58245 11.596 8.72245 11.596H9.02511C9.59978 11.596 10.2131 11.3487 10.5171 10.9954C10.7584 10.716 11.1784 10.6847 11.4571 10.924C11.7364 11.164 11.7684 11.5854 11.5284 11.864C10.9724 12.5114 9.98911 12.93 9.02445 12.93H8.72178C6.86578 12.93 5.35578 11.4074 5.35578 9.53603V7.9907C5.35578 6.11936 6.86578 4.5967 8.72178 4.5967H9.02445C10.0144 4.5967 10.9604 5.07003 11.5558 5.86336C11.7771 6.15803 11.7171 6.57603 11.4224 6.7967C11.1278 7.01803 10.7098 6.95736 10.4898 6.66336C10.1451 6.20403 9.59778 5.93003 9.02511 5.93003H8.72245C7.58245 5.93003 6.68978 6.83536 6.68978 7.9907V7.99003Z" fill="#827F7F"/>
</g>
<defs>
<clipPath id="clip0_4340_249">
<rect width="16" height="16" fill="white" transform="translate(0.831055 0.75)"/>
</clipPath>
</defs>
</svg>
