<svg width="145" height="146" viewBox="0 0 145 146" fill="none" xmlns="http://www.w3.org/2000/svg">
<path d="M139.299 45.4211C135.918 41.5061 129.944 40.871 124.724 43.6318C113.521 34.5664 100.88 28.4532 87.1193 25.4517C75.7339 22.9693 65.4041 22.9229 56.6548 23.3144C53.3981 18.5903 47.5488 16.4443 42.5898 18.396C37.6221 20.3506 35.0179 25.7533 36.0735 31.2923C24.8563 39.6646 12.8445 56.5948 10.3737 72.6927C5.58288 74.9141 2.72928 79.5193 3.44268 84.2318C4.28658 89.794 9.83718 93.7293 16.2259 93.5379C24.0153 101.933 34.5307 108.911 46.7397 113.768C56.9506 117.831 68.0402 120.2 77.5377 120.377C79.7127 125.206 84.3063 128.32 88.9811 128.32C89.9526 128.32 90.9299 128.187 91.8869 127.903C96.7676 126.467 99.8097 121.619 99.5429 116.143C115.006 107.327 135.259 84.8727 136.587 62.2643C139.514 59.7616 141.349 56.357 141.631 52.8915C141.86 50.0785 141.033 47.425 139.299 45.4211ZM135.862 52.4217C135.703 54.3792 134.531 56.444 132.733 57.9462C132.675 57.9955 132.551 58.0767 132.432 58.155C132.313 58.2333 132.197 58.3116 132.081 58.3957C131.333 58.9264 130.88 59.7761 130.86 60.6925C130.376 82.1351 109.412 104.622 95.1059 111.967C93.9488 112.562 93.3282 113.858 93.595 115.131C94.2939 118.481 92.8555 121.584 90.2513 122.352C87.2817 123.225 83.7437 120.876 82.5025 117.213L82.4909 117.161C82.4619 117.013 82.43 116.868 82.3894 116.72C82.0385 115.447 80.8611 114.586 79.5503 114.595C61.4688 114.891 35.0585 106.072 19.5725 88.6195C18.9229 87.8886 17.9514 87.5349 16.9828 87.677C16.9712 87.6799 16.9596 87.6799 16.9451 87.6828C13.1519 88.1816 9.59068 86.2125 9.15858 83.3647C8.79318 80.9461 10.771 78.4956 13.8682 77.5357C14.9702 77.1935 15.7619 76.2336 15.8895 75.0881C17.5976 59.5412 30.259 42.1122 41.0093 34.8825C42.1171 34.1372 42.5724 32.7307 42.1084 31.4779C40.902 28.2096 42.0417 24.8311 44.7068 23.7813C47.456 22.6996 50.8635 24.3671 52.4643 27.5803C52.9776 28.6098 54.0564 29.2391 55.2048 29.1782C75.4729 28.1284 99.3341 29.7118 122.612 49.397C123.63 50.2583 125.106 50.3105 126.185 49.5246C129.285 47.2655 133.122 47.1234 134.92 49.2027C135.831 50.2583 135.935 51.5343 135.862 52.4217Z" fill="#515150"/>
<path d="M111.693 54.4548C102.796 59.6399 86.2024 76.3208 79.4686 92.9117C78.8683 94.3936 79.5817 96.0813 81.0607 96.6816C81.4174 96.8266 81.7857 96.8934 82.1482 96.8934C83.2908 96.8934 84.3754 96.2118 84.8307 95.0867C90.8511 80.2531 106.23 64.335 114.608 59.4543C115.988 58.6481 116.455 56.8762 115.652 55.4958C114.846 54.1183 113.074 53.6515 111.693 54.4548Z" fill="#515150"/>
</svg>
