<svg width="27" height="30" viewBox="0 0 27 30" fill="none" xmlns="http://www.w3.org/2000/svg">
<path d="M1.73835 7.40133H6.80063V6.81172C6.80063 3.06772 9.86777 0.03125 13.6496 0.03125C17.4314 0.03125 20.4986 3.06772 20.4986 6.81172V7.40133H25.5608C26.2197 7.40133 26.752 7.92829 26.752 8.58054V28.3324C26.752 28.9846 26.2197 29.5116 25.5608 29.5116H1.73835C1.07951 29.5116 0.547228 28.9846 0.547228 28.3324V8.58054C0.547228 7.92829 1.07951 7.40133 1.73835 7.40133ZM17.8185 6.81172C17.8185 4.53068 15.9537 2.68448 13.6496 2.68448C11.3455 2.68448 9.48066 4.53068 9.48066 6.81172V7.40133H17.8185V6.81172ZM3.22726 26.8583H24.0719V10.0546H20.4986V13.2974C20.4986 13.4595 20.3646 13.5922 20.2008 13.5922H18.1163C17.9525 13.5922 17.8185 13.4595 17.8185 13.2974V10.0546H9.48066V13.2974C9.48066 13.4595 9.34665 13.5922 9.18288 13.5922H7.09841C6.93463 13.5922 6.80063 13.4595 6.80063 13.2974V10.0546H3.22726V26.8583Z" fill="#525252"/>
</svg>
