<svg width="199" height="340" viewBox="0 0 199 340" fill="none" xmlns="http://www.w3.org/2000/svg">
<mask id="path-1-inside-1_4340_2794" fill="white">
<path d="M0 40.8515C0 18.7602 17.9086 0.851562 40 0.851562H159C181.091 0.851562 199 18.7602 199 40.8516V299.383C199 321.474 181.091 339.383 159 339.383H40C17.9086 339.383 0 321.474 0 299.383V40.8515Z"/>
</mask>
<path d="M0 40.8515C0 18.7602 17.9086 0.851562 40 0.851562H159C181.091 0.851562 199 18.7602 199 40.8516V299.383C199 321.474 181.091 339.383 159 339.383H40C17.9086 339.383 0 321.474 0 299.383V40.8515Z" fill="#F7AA9C"/>
<path d="M40 1.85156H159V-0.148438H40V1.85156ZM198 40.8516V299.383H200V40.8516H198ZM159 338.383H40V340.383H159V338.383ZM1 299.383V40.8515H-1V299.383H1ZM40 338.383C18.4609 338.383 1 320.922 1 299.383H-1C-1 322.026 17.3563 340.383 40 340.383V338.383ZM198 299.383C198 320.922 180.539 338.383 159 338.383V340.383C181.644 340.383 200 322.026 200 299.383H198ZM159 1.85156C180.539 1.85156 198 19.3125 198 40.8516H200C200 18.2079 181.644 -0.148438 159 -0.148438V1.85156ZM40 -0.148438C17.3563 -0.148438 -1 18.2079 -1 40.8515H1C1 19.3124 18.4609 1.85156 40 1.85156V-0.148438Z" fill="black" mask="url(#path-1-inside-1_4340_2794)"/>
</svg>
